<svg xmlns="http://www.w3.org/2000/svg"  viewBox="0 0 64 64" width="48px" height="48px" baseProfile="basic"><ellipse cx="33" cy="61" opacity=".3" rx="19" ry="3"/><path fill="#ffce29" d="M40,10L40,10c-1.657,0-3,1.343-3,3v9c0,0.552-0.448,1-1,1l0,0c-0.552,0-1-0.448-1-1V9	c0-1.657-1.343-3-3-3h0c-1.657,0-3,1.343-3,3v13c0,0.552-0.448,1-1,1h0c-0.552,0-1-0.448-1-1V9c0-1.657-1.343-3-3-3h0	c-1.657,0-3,1.343-3,3v13c0,0.552-0.448,1-1,1h0c-0.552,0-1-0.448-1-1v-6c0-1.657-1.343-3-3-3h0c-1.657,0-3,1.343-3,3v27.101	C13,49.673,18.327,55,24.899,55H40.05L42,46h1V13C43,11.343,41.657,10,40,10z"/><path fill="#548500" d="M52.018,46.01h-40c-2.209,0-4-1.791-4-4v-22c0-2.209,1.791-4,4-4h40c2.209,0,4,1.791,4,4v22 C56.018,44.219,54.227,46.01,52.018,46.01z"/><path fill="#98c900" d="M13.018,40.01v-18c0-0.552,0.448-1,1-1h36c0.552,0,1,0.448,1,1v18c0,0.552-0.448,1-1,1h-36 C13.466,41.01,13.018,40.562,13.018,40.01z"/><ellipse cx="32.018" cy="31.01" fill="#548500" rx="7" ry="8"/><circle cx="13.518" cy="40.51" r="3.5" fill="#548500"/><circle cx="50.518" cy="21.51" r="3.5" fill="#548500"/><circle cx="19.018" cy="31.01" r="2" fill="#548500"/><circle cx="45.018" cy="31.01" r="2" fill="#548500"/><path d="M51.018,33.01v4.05c-0.165-0.024-0.329-0.05-0.5-0.05c-1.933,0-3.5,1.567-3.5,3.5 c0,0.171,0.027,0.335,0.05,0.5h-20.05c-2.761,0-5,2.238-5,5h30c2.209,0,4-1.791,4-4v-14C53.257,28.01,51.018,30.248,51.018,33.01z" opacity=".15"/><path fill="#fff" d="M12.018,16.01c-2.209,0-4,1.791-4,4v14c2.761,0,5-2.238,5-5v-4.05 c0.165,0.024,0.329,0.05,0.5,0.05c1.933,0,3.5-1.567,3.5-3.5c0-0.171-0.027-0.335-0.05-0.5h5.05c2.761,0,5-2.238,5-5H12.018z" opacity=".3"/><path fill="none" stroke="#fff" stroke-linecap="round" stroke-linejoin="round" stroke-miterlimit="10" stroke-width="3" d="M12.018,24.51v-3.5c0-0.552,0.448-1,1-1h5.5"/><path fill="#ffce29" d="M40,55L40,55c3.114,0,6.012-1.591,7.684-4.218l3.57-5.609c0.49-0.77,0.786-1.648,0.861-2.557	l0.7-8.395c0.1-1.195-0.843-2.22-2.043-2.22h0c-2.204,0-4.113,1.531-4.591,3.683L45,41L35,51L40,55z"/></svg>