<svg xmlns="http://www.w3.org/2000/svg"  viewBox="0 0 64 64" width="48px" height="48px" baseProfile="basic"><circle cx="32" cy="32" r="23" fill="#fd3c4f"/><ellipse cx="32" cy="61" opacity=".3" rx="19" ry="3"/><path fill="#ffa1ac" d="M48.94,16.446L37,23.34V9.551C35.39,9.194,33.718,9,32,9s-3.39,0.194-5,0.551V23.34l-11.94-6.894	c-2.255,2.454-3.984,5.399-5.006,8.657L22,32l-11.946,6.897c1.023,3.258,2.752,6.202,5.006,8.657L27,40.66v13.788	C28.61,54.806,30.282,55,32,55s3.39-0.194,5-0.551V40.66l11.94,6.894c2.255-2.454,3.984-5.399,5.006-8.657L42,32l11.946-6.897	C52.924,21.845,51.195,18.9,48.94,16.446z"/><path fill="#fff" d="M32,14c2.577,0,4.674-1.957,4.946-4.461C35.352,9.19,33.699,9,32,9	C19.297,9,9,19.297,9,32c0,1.699,0.19,3.352,0.539,4.946C12.044,36.674,14,34.577,14,32C14,22.075,22.075,14,32,14z" opacity=".3"/><path fill="none" stroke="#fff" stroke-linecap="round" stroke-linejoin="round" stroke-miterlimit="10" stroke-width="3" d="M15.047,23.427c1.878-3.699,4.932-6.705,8.666-8.522"/><path d="M54.461,27.054C51.956,27.326,50,29.423,50,32c0,9.925-8.075,18-18,18	c-2.577,0-4.674,1.957-4.946,4.461C28.648,54.81,30.301,55,32,55c12.703,0,23-10.297,23-23C55,30.301,54.81,28.648,54.461,27.054z" opacity=".15"/><circle cx="32" cy="32" r="14" fill="#fd3c4f"/><circle cx="32" cy="32" r="10" fill="#ffa1ac"/></svg>