<svg xmlns="http://www.w3.org/2000/svg"  viewBox="0 0 64 64" width="48px" height="48px" baseProfile="basic"><path fill="#9c34c2" d="M41.393,56.877l-21.887-4.633c-2.523-0.534-4.135-3.012-3.601-5.535l6.962-32.89	c0.534-2.523,3.012-4.135,5.535-3.601l21.887,4.633c2.523,0.534,4.135,3.012,3.601,5.535l-6.962,32.89	C46.394,55.799,43.916,57.411,41.393,56.877z"/><path fill="#37d0ee" d="M39.291,47.989H16.73c-2.601,0-4.709-2.108-4.709-4.709V9.709C12.021,7.108,14.13,5,16.73,5h22.561	C41.892,5,44,7.108,44,9.709V43.28C44,45.881,41.892,47.989,39.291,47.989z"/><path fill="#fff" d="M17.021,28V12c0-1.105,0.895-2,2-2H25c2.761,0,4.997-2.239,4.997-5H16.73	c-2.601,0-4.709,2.108-4.709,4.709v23.288C14.782,32.997,17.021,30.761,17.021,28z" opacity=".3"/><path d="M44,43.28V21.003c-0.162,0-0.326,0.005-0.492,0.021c-2.6,0.248-4.508,2.58-4.508,5.192v14.774	c0,1.105-0.895,2-2,2h-7c-2.761,0-4.997,2.239-4.997,5h14.288C41.892,47.989,44,45.881,44,43.28z" opacity=".15"/><path fill="#9c34c2" d="M27,27v3c0,2.098-1.951,4.002-4.049,4.002l0,0c-0.526,0-0.95,0.47-0.95,0.995S22.425,36,22.95,36	h10.097c0.526,0,0.95-0.47,0.95-0.996S33.573,34,33.047,34l0,0C30.949,34,29,32.098,29,30v-3H27z"/><path fill="#9c34c2" d="M35.549,23.198c-0.84-0.875-5.924-5.281-6.278-5.648l0,0C28.922,17.183,28.46,17,28,17	s-0.922,0.183-1.272,0.55l0,0c-0.354,0.367-5.438,4.773-6.278,5.648c-1.934,2.015-1.934,5.279,0,7.291c1.934,2.015,5.068,2.015,7,0	c0.21-0.219,0.386-0.456,0.55-0.702c0.164,0.244,0.34,0.483,0.55,0.702c1.934,2.015,5.068,2.015,7,0	C37.483,28.477,37.483,25.21,35.549,23.198z"/><ellipse cx="32" cy="61" opacity=".3" rx="19" ry="3"/><path fill="none" stroke="#f2f2f2" stroke-linecap="round" stroke-linejoin="round" stroke-miterlimit="10" stroke-width="3" d="M15.521,14.5V9.708c0-0.667,0.542-1.208,1.208-1.208h2.77"/></svg>