<svg xmlns="http://www.w3.org/2000/svg"  viewBox="0 0 64 64" width="48px" height="48px" baseProfile="basic"><path fill="#37d0ee" d="M52.477,16.561l-16.827-9.6c-2.133-1.217-4.747-1.227-6.889-0.027l-17.204,9.635	c-1.58,0.883-2.558,2.552-2.558,4.362V49c0,2.761,2.239,5,5,5h36c2.761,0,5-2.239,5-5V20.904	C54.999,19.108,54.036,17.451,52.477,16.561z"/><ellipse cx="31.999" cy="61" opacity=".3" rx="20.125" ry="3"/><path fill="#fd3c4f" d="M55.497,23c-0.409,0-0.824-0.101-1.208-0.312l-22.29-12.331L9.709,22.688	c-1.206,0.667-2.729,0.231-3.397-0.978c-0.668-1.208-0.23-2.729,0.978-3.397l23.5-13c0.752-0.416,1.668-0.416,2.42,0l23.5,13	c1.208,0.668,1.646,2.189,0.978,3.397C57.23,22.535,56.377,23,55.497,23z"/><path fill="#fff" d="M32.452,5.057c-0.562-0.104-1.15-0.029-1.663,0.255l-23.5,13	c-0.197,0.109-0.365,0.247-0.519,0.396c0.923,1.597,2.597,2.501,4.328,2.501c0.818,0,1.648-0.201,2.415-0.626l16.754-9.268	C32.509,10.076,33.4,7.372,32.452,5.057z" opacity=".3"/><path fill="#fff" d="M17.518,18.141c-0.527,0-1.039-0.279-1.313-0.772c-0.402-0.725-0.141-1.638,0.583-2.04l7.955-4.415	c0.725-0.402,1.638-0.141,2.04,0.583c0.402,0.725,0.141,1.638-0.583,2.04l-7.955,4.415C18.014,18.08,17.764,18.141,17.518,18.141z"/><path d="M50,43v1v4c0,0.551-0.448,1-1,1h-2c-2.762,0-5,2.238-5,5h7h1c2.761,0,5-2.239,5-5v-1v-7v-3	C52.238,38,50,40.239,50,43z" opacity=".15"/><path fill="#ffce29" d="M42.502,32.501c0-6.2-5.372-11.144-11.715-10.433c-4.859,0.544-8.758,4.506-9.236,9.373	c-0.385,3.921,1.391,7.448,4.275,9.547c1.456,1.059,2.305,1.483,2.305,3.283v1.878h7.738v-1.876c0-1.785,0.822-2.215,2.269-3.259	C40.781,39.108,42.502,36.008,42.502,32.501z"/><path fill="#9c34c2" d="M32,50.017L32,50.017c-2.137,0-3.869-1.732-3.869-3.869v-2.144h7.738v2.144	C35.869,48.285,34.137,50.017,32,50.017z"/><circle cx="46" cy="25" r="2" fill="#ffce29"/><circle cx="48" cy="32" r="2" fill="#ffce29"/><circle cx="46" cy="39" r="2" fill="#ffce29"/><circle cx="18" cy="25" r="2" fill="#ffce29"/><circle cx="16" cy="32" r="2" fill="#ffce29"/><circle cx="18" cy="39" r="2" fill="#ffce29"/></svg>