<svg xmlns="http://www.w3.org/2000/svg"  viewBox="0 0 64 64" width="48px" height="48px"><path fill="#9c34c2" d="M49.621,16.791l-0.479,1.991c-0.273,1.135,0.481,2.262,1.634,2.444l2.015,0.316 c1.478,0.232,2.187,1.946,1.306,3.154l-1.201,1.647c-0.689,0.944-0.425,2.275,0.572,2.885l1.744,1.067 c1.275,0.78,1.275,2.632,0,3.412l-1.744,1.067c-0.997,0.61-1.261,1.941-0.572,2.885l1.201,1.646 c0.882,1.209,0.172,2.923-1.306,3.154l-2.014,0.316c-1.154,0.181-1.908,1.308-1.635,2.444l0.479,1.99 c0.349,1.453-0.96,2.762-2.412,2.412l-1.991-0.479c-1.135-0.273-2.262,0.481-2.444,1.634l-0.316,2.015 c-0.232,1.478-1.946,2.187-3.154,1.306l-1.647-1.201c-0.944-0.689-2.275-0.425-2.885,0.572l-1.067,1.744 c-0.78,1.275-2.632,1.275-3.412,0l-1.067-1.744c-0.61-0.997-1.941-1.261-2.885-0.572l-1.646,1.201 c-1.209,0.882-2.923,0.172-3.154-1.306l-0.316-2.014c-0.181-1.154-1.308-1.908-2.444-1.635l-1.99,0.479 c-1.453,0.349-2.762-0.96-2.412-2.412l0.479-1.991c0.273-1.135-0.481-2.262-1.634-2.444l-2.015-0.316 c-1.478-0.232-2.187-1.946-1.306-3.154l1.201-1.647c0.689-0.944,0.425-2.275-0.572-2.885l-1.744-1.067 c-1.275-0.78-1.275-2.632,0-3.412l1.744-1.067c0.997-0.61,1.261-1.941,0.572-2.885l-1.201-1.646 c-0.882-1.209-0.172-2.923,1.306-3.154l2.014-0.316c1.154-0.181,1.908-1.308,1.635-2.444l-0.479-1.99 c-0.349-1.453,0.96-2.762,2.412-2.412l1.991,0.479c1.135,0.273,2.262-0.481,2.444-1.634l0.316-2.015 c0.232-1.478,1.946-2.187,3.154-1.306l1.647,1.201c0.944,0.689,2.275,0.425,2.885-0.572l1.067-1.744 c0.78-1.275,2.632-1.275,3.412,0l1.067,1.744c0.61,0.997,1.941,1.261,2.885,0.572l1.646-1.201c1.209-0.882,2.923-0.172,3.154,1.306 l0.316,2.014c0.181,1.154,1.308,1.908,2.444,1.635l1.99-0.479C48.661,14.03,49.97,15.339,49.621,16.791z"/><path d="M54.096,39.305l-1.201-1.646c-0.689-0.944-0.425-2.275,0.572-2.885 l1.744-1.067c1.275-0.78,1.275-2.632,0-3.412l-1.744-1.067c-0.997-0.61-1.26-1.941-0.572-2.885l1.201-1.647 c0.882-1.209,0.172-2.922-1.306-3.154l-2.015-0.316c-0.07-0.011-0.134-0.036-0.202-0.054c-0.181,0.181-0.362,0.364-0.518,0.577 l-1.202,1.648c-1.148,1.574-1.589,3.573-1.21,5.484c0.229,1.156,0.748,2.228,1.489,3.118c-0.742,0.892-1.26,1.963-1.489,3.119 c-0.228,1.151-0.159,2.335,0.184,3.438c-1.022,0.539-1.908,1.327-2.561,2.303c-0.655,0.979-1.045,2.104-1.151,3.258 c-1.154,0.105-2.278,0.496-3.258,1.15c-0.976,0.652-1.764,1.539-2.303,2.561c-1.104-0.343-2.289-0.413-3.441-0.183 c-1.67,0.331-3.163,1.267-4.191,2.606c-1.091-0.144-2.231,0.076-3.241,0.695c-0.968,0.593-1.342,1.948-1.342,1.948 c0.944-0.689,2.275-0.425,2.885,0.572l1.067,1.744c0.78,1.275,2.632,1.275,3.412,0l1.067-1.744c0.61-0.997,1.94-1.26,2.885-0.572 l1.647,1.201c1.209,0.882,2.922,0.172,3.154-1.306l0.316-2.015c0.181-1.154,1.308-1.908,2.443-1.634l1.991,0.479 c1.453,0.349,2.762-0.96,2.412-2.412l-0.479-1.99c-0.273-1.136,0.481-2.263,1.635-2.444l2.014-0.316 C54.269,42.227,54.978,40.513,54.096,39.305z" opacity=".15"/><path fill="#fff" d="M23.141,18.732c0.976-0.652,1.764-1.539,2.303-2.561 c1.104,0.343,2.288,0.413,3.441,0.183c1.67-0.331,3.163-1.267,4.191-2.606c0.975-1.051,1.379-2.147,1.698-3.216l-1.067-1.744 c-0.78-1.275-2.632-1.275-3.412,0l-1.067,1.744c-0.61,0.997-1.94,1.26-2.885,0.572l-1.647-1.201 c-1.209-0.882-2.922-0.172-3.154,1.306l-0.316,2.015c-0.181,1.154-1.308,1.907-2.443,1.634l-1.991-0.479 c-1.453-0.349-2.762,0.96-2.412,2.412l0.479,1.99c0.273,1.136-0.481,2.263-1.635,2.444l-2.014,0.316 c-1.478,0.232-2.188,1.945-1.306,3.154l1.201,1.646c0.689,0.944,0.425,2.275-0.572,2.885l-1.744,1.067 c-1.275,0.78-1.275,2.632,0,3.412l1.744,1.067c0.997,0.61,1.26,1.941,0.572,2.885l-1.201,1.647 c-0.882,1.209-0.172,2.922,1.306,3.154l2.015,0.316c0.075,0.012,0.143,0.038,0.214,0.057c0.179-0.18,0.351-0.37,0.505-0.581 l1.202-1.648c1.148-1.574,1.589-3.573,1.21-5.484c-0.229-1.156-0.748-2.228-1.489-3.118c0.742-0.892,1.26-1.963,1.489-3.119 c0.228-1.151,0.159-2.335-0.184-3.438c1.022-0.539,1.908-1.327,2.561-2.303c0.655-0.979,1.045-2.104,1.151-3.258 C21.037,19.777,22.161,19.387,23.141,18.732z" opacity=".3"/><ellipse cx="32" cy="61" opacity=".3" rx="19" ry="3"/><path fill="none" stroke="#fff" stroke-linecap="round" stroke-linejoin="round" stroke-miterlimit="10" stroke-width="3" d="M19.251,18.414c2.592,0,4.786-1.769,5.357-4.26"/><g><path fill="#a0effe" d="M17.912,36.579c-0.608,0-0.912-0.316-0.912-0.95v-7.221c0-0.321,0.078-0.566,0.235-0.735 c0.156-0.169,0.365-0.253,0.627-0.253c0.22,0,0.393,0.044,0.52,0.133c0.127,0.089,0.27,0.234,0.431,0.437l4.104,5.232v-4.865 c0-0.625,0.304-0.937,0.912-0.937s0.911,0.312,0.911,0.937v7.31c0,0.278-0.071,0.5-0.214,0.665 c-0.144,0.164-0.338,0.247-0.584,0.247c-0.236,0-0.424-0.046-0.564-0.139c-0.139-0.093-0.289-0.241-0.449-0.443l-4.104-5.232v4.864 C18.825,36.263,18.521,36.579,17.912,36.579z"/><path fill="#a0effe" d="M27.566,36.465c-0.685,0-1.027-0.342-1.027-1.026v-6.878c0-0.685,0.342-1.026,1.027-1.026h4.421 c0.515,0,0.773,0.253,0.773,0.76c0,0.515-0.258,0.773-0.773,0.773h-3.572v2.09h3.281c0.524,0,0.786,0.258,0.786,0.773 c0,0.515-0.262,0.773-0.786,0.773h-3.281v2.229h3.572c0.515,0,0.773,0.254,0.773,0.76c0,0.515-0.258,0.773-0.773,0.773H27.566z"/><path fill="#a0effe" d="M37.51,36.579c-0.279,0-0.501-0.065-0.666-0.196c-0.164-0.131-0.297-0.331-0.399-0.602l-2.559-7.195 c-0.119-0.321-0.097-0.595,0.064-0.824c0.16-0.228,0.435-0.342,0.823-0.342c0.27,0,0.479,0.063,0.628,0.19 c0.147,0.127,0.268,0.325,0.361,0.595l1.824,5.435l1.926-5.422c0.093-0.27,0.215-0.471,0.367-0.602 c0.153-0.131,0.351-0.196,0.596-0.196c0.236,0,0.427,0.065,0.57,0.196s0.266,0.336,0.367,0.614l1.863,5.51l1.9-5.536 c0.085-0.261,0.202-0.458,0.355-0.589c0.152-0.131,0.359-0.196,0.621-0.196c0.33,0,0.57,0.114,0.722,0.342 c0.153,0.228,0.169,0.503,0.052,0.824l-2.585,7.208c-0.093,0.262-0.222,0.458-0.387,0.589c-0.165,0.131-0.382,0.196-0.653,0.196 c-0.27,0-0.486-0.065-0.645-0.196c-0.161-0.131-0.292-0.331-0.393-0.602l-1.849-5.245l-1.875,5.257 c-0.101,0.262-0.23,0.458-0.387,0.589C37.993,36.514,37.781,36.579,37.51,36.579z"/></g></svg>