<svg xmlns="http://www.w3.org/2000/svg"  viewBox="0 0 64 64" width="48px" height="48px"><ellipse cx="32" cy="61" opacity=".3" rx="19" ry="3"/><path fill="#fd3c4f" d="M44.88,20.729c-0.778,1.524-1.462,2.831-2.256,3.916c-0.542,0.74-1.729,0.276-1.608-0.63	c0.529-3.941-0.003-10.437-6.077-16.083c-1.425-1.325-3.658-1.206-5.047,0.155c-8.102,7.935-20.112,14.43-19.89,26.974	c0.19,10.765,8.711,19.909,19.547,20.853C42.302,57.026,53,47.109,53,34.719c0-4.578-2.178-9.599-5.45-14.178	C46.876,19.598,45.406,19.698,44.88,20.729z"/><path fill="none" stroke="#fff" stroke-linecap="round" stroke-linejoin="round" stroke-miterlimit="10" stroke-width="3" d="M19.706,22.625c0.681-0.717,1.402-1.421,2.152-2.12s1.53-1.39,2.326-2.081"/><path fill="#ffce29" d="M41,46.409C41,52.368,36.747,56,31.5,56S22,52.368,22,46.409c0-4.974,4.542-10.521,7.345-13.47	c1.19-1.252,3.12-1.252,4.31,0C36.458,35.888,41,41.435,41,46.409z"/><path d="M52.623,38.669c-2.38-0.75-4.994,0.354-6.049,2.684c-0.917,2.024-2.224,3.818-3.885,5.332 c-1.67,1.522-3.598,2.668-5.729,3.404c-2.421,0.837-3.763,3.347-3.226,5.79C43.229,54.908,50.886,47.825,52.623,38.669z" opacity=".15"/><path fill="#fff" d="M10.304,31.413c0.516,0.172,1.045,0.259,1.57,0.259c1.851,0,3.629-1.031,4.496-2.805 c0.874-1.789,2.207-3.611,4.075-5.571c1.835-1.925,3.944-3.746,6.126-5.599c2.105-1.787,2.363-4.942,0.576-7.047 c-0.005-0.006-0.012-0.01-0.017-0.017C20.214,16.721,11.963,22.421,10.304,31.413z" opacity=".3"/></svg>