<svg xmlns="http://www.w3.org/2000/svg"  viewBox="0 0 64 64" width="48px" height="48px"><path fill="#37d0ee" d="M32.968,55c-12.683,0-23-10.317-23-23s10.317-23,23-23c1.381,0,2.5,1.119,2.5,2.5 s-1.119,2.5-2.5,2.5c-9.925,0-18,8.075-18,18s8.075,18,18,18s18-8.075,18-18c0-1.381,1.119-2.5,2.5-2.5s2.5,1.119,2.5,2.5 C55.968,44.683,45.65,55,32.968,55z"/><ellipse cx="32" cy="61" opacity=".3" rx="19" ry="3"/><path fill="#37d0ee" d="M38.107,16.289l5.541-6.719c0.828-1.004,2.448-0.617,2.732,0.653l1.549,6.922 c0.223,0.995-0.551,1.933-1.57,1.904l-7.09-0.202C37.969,18.81,37.28,17.293,38.107,16.289z"/><path fill="#37d0ee" d="M10.055,29.961c-1.24,14.41,10.817,26.354,25.261,24.922c1.14-0.113,2.255-0.316,3.34-0.597 c1.541-0.399,2.281-2.163,1.539-3.572l0,0c-0.529-1.004-1.673-1.549-2.772-1.268c-0.877,0.225-1.78,0.384-2.701,0.471 c-11.612,1.099-21.228-8.843-19.568-20.55c1.079-7.615,7.094-13.797,14.674-15.097c4.04-0.693,7.867-0.015,11.137,1.619 c0.972,0.486,2.139,0.317,2.917-0.461l0.043-0.043c1.169-1.169,0.881-3.16-0.593-3.908c-3.926-1.994-8.495-2.898-13.324-2.291 C19.376,10.523,10.975,19.285,10.055,29.961z"/><path d="M55.959,31.839c-2.504-0.248-4.848,1.397-5.382,3.915c-0.02,0.096-0.049,0.19-0.071,0.286 c-0.058,0.254-0.118,0.507-0.187,0.756c-0.041,0.148-0.088,0.294-0.132,0.441c-0.063,0.207-0.127,0.414-0.197,0.618 c-0.052,0.151-0.107,0.3-0.163,0.449c-0.074,0.198-0.151,0.395-0.232,0.59c-0.06,0.144-0.121,0.288-0.184,0.43 c-0.09,0.202-0.185,0.4-0.282,0.598c-0.063,0.129-0.125,0.259-0.192,0.386c-0.119,0.228-0.245,0.452-0.374,0.675 c-0.052,0.091-0.101,0.184-0.155,0.273c-0.186,0.31-0.381,0.614-0.585,0.911c-0.047,0.068-0.098,0.133-0.146,0.201 c-0.161,0.228-0.325,0.454-0.497,0.674c-0.081,0.104-0.166,0.205-0.249,0.307c-0.146,0.179-0.293,0.356-0.445,0.529 c-0.096,0.109-0.195,0.217-0.293,0.324c-0.148,0.16-0.298,0.317-0.452,0.472c-0.105,0.106-0.211,0.212-0.319,0.316 c-0.158,0.152-0.321,0.299-0.484,0.445c-0.108,0.097-0.215,0.195-0.326,0.289c-0.19,0.161-0.385,0.316-0.582,0.469 c-0.09,0.07-0.176,0.143-0.267,0.212c-0.279,0.21-0.565,0.41-0.856,0.604c-0.122,0.081-0.248,0.155-0.371,0.233 c-0.183,0.115-0.366,0.23-0.553,0.338c-0.142,0.082-0.287,0.16-0.431,0.239c-0.177,0.096-0.354,0.19-0.534,0.28 c-0.15,0.075-0.302,0.148-0.454,0.219c-0.184,0.086-0.37,0.167-0.557,0.247c-0.151,0.064-0.302,0.129-0.456,0.189 c-0.205,0.081-0.413,0.155-0.622,0.228c-0.111,0.039-0.22,0.085-0.332,0.122c-2.445,0.804-3.825,3.311-3.308,5.772 C46.953,53.705,56.041,43.829,55.959,31.839z" opacity=".15"/><path fill="#9c34c2" d="M39.5,42c-0.384,0-0.768-0.146-1.061-0.439l-8-8c-0.474-0.474-0.576-1.203-0.251-1.789l5-9 c0.403-0.726,1.317-0.984,2.04-0.583c0.725,0.402,0.985,1.315,0.583,2.04l-4.451,8.011l7.2,7.2c0.586,0.586,0.586,1.535,0,2.121 C40.268,41.854,39.884,42,39.5,42z"/><circle cx="32" cy="32" r="3" fill="orange"/><circle cx="33" cy="18" r="2" fill="#0089ad"/><circle cx="33" cy="46" r="2" fill="#0089ad"/><circle cx="47" cy="32" r="2" fill="#0089ad"/><circle cx="19" cy="32" r="2" fill="#0089ad"/><path fill="#fff" d="M46.374,19.05l-3.079-0.088c-0.091-0.234-0.173-0.473-0.23-0.725l-0.175-0.781 c-0.163-0.727-0.706-1.344-1.436-1.495c-0.367-0.076-0.729-0.196-1.081-0.356c-1.979-0.9-4.056-1.419-6.197-1.56 c-0.057-0.004-0.115-0.006-0.172-0.009c-0.269-0.015-0.538-0.026-0.809-0.029c-0.122-0.002-0.244,0-0.367,0.001 c-0.137,0.001-0.274-0.003-0.411,0.001c-2.588,0.038-4.724-1.81-5.078-4.292c1.585-0.407,3.232-0.653,4.925-0.706 c3.64-0.111,7.088,0.639,10.177,2.042l1.222-1.482c0.828-1.004,2.448-0.616,2.732,0.653l1.549,6.922 C48.167,18.14,47.393,19.079,46.374,19.05z" opacity=".3"/><path fill="#fff" d="M39.559,13.961c-0.16,0-0.323-0.025-0.483-0.08c-1.198-0.407-2.443-0.696-3.701-0.859 c-0.821-0.105-1.401-0.857-1.295-1.68c0.106-0.821,0.856-1.41,1.68-1.295c1.455,0.188,2.896,0.522,4.283,0.994 c0.784,0.267,1.203,1.119,0.937,1.903C40.767,13.568,40.184,13.961,39.559,13.961z"/></svg>