<svg xmlns="http://www.w3.org/2000/svg"  viewBox="0 0 64 64" width="48px" height="48px" baseProfile="basic"><polyline fill="none" stroke="#9c34c2" stroke-linecap="round" stroke-linejoin="round" stroke-miterlimit="10" stroke-width="4" points="54,25 54,43 42,43"/><ellipse cx="32" cy="61" opacity=".3" rx="21" ry="3"/><path fill="#fd3c4f" d="M45,54H12c-1.657,0-3-1.343-3-3V26.5C9,15.73,17.73,7,28.5,7h0C39.27,7,48,15.73,48,26.5V51	C48,52.657,46.657,54,45,54z"/><path fill="none" stroke="#fff" stroke-linecap="round" stroke-linejoin="round" stroke-miterlimit="10" stroke-width="3" d="M14.402,18.938c1.415-2.628,3.544-4.817,6.125-6.307"/><path fill="#fff" d="M33.434,7.654C31.855,7.242,30.208,7,28.5,7C17.73,7,9,15.73,9,26.5v5 c2.762,0,5-2.239,5-5C14,18.505,20.505,12,28.5,12C31.038,12,33.111,10.103,33.434,7.654z" opacity=".3"/><path d="M48,51V41c-2.762,0-5,2.239-5,5v2c0,0.552-0.448,1-1,1H31c-2.762,0-5,2.239-5,5h19 C46.657,54,48,52.657,48,51z" opacity=".15"/><path fill="#ffa1ac" d="M16.167,26.5c-1.239,0-2.178-1.116-1.979-2.338C15.31,17.274,21.301,12,28.5,12	s13.19,5.274,14.312,12.162c0.199,1.223-0.74,2.338-1.979,2.338H16.167z"/><circle cx="54" cy="25" r="4" fill="#fd3c4f"/><path fill="#ffce29" d="M31,41h-5c-1.105,0-2-0.895-2-2v-7c0-1.105,0.895-2,2-2h5c1.105,0,2,0.895,2,2v7	C33,40.105,32.105,41,31,41z"/><path fill="#ffce29" d="M19,41h-5c-1.105,0-2-0.895-2-2v-7c0-1.105,0.895-2,2-2h5c1.105,0,2,0.895,2,2v7	C21,40.105,20.105,41,19,41z"/><path fill="#ffce29" d="M43,41h-5c-1.105,0-2-0.895-2-2v-7c0-1.105,0.895-2,2-2h5c1.105,0,2,0.895,2,2v7	C45,40.105,44.105,41,43,41z"/><path fill="#9c34c2" d="M34.5,49h-12c-1.381,0-2.5-1.119-2.5-2.5v0c0-1.381,1.119-2.5,2.5-2.5h12c1.381,0,2.5,1.119,2.5,2.5	v0C37,47.881,35.881,49,34.5,49z"/></svg>