<svg xmlns="http://www.w3.org/2000/svg"  viewBox="0 0 64 64" width="48px" height="48px" baseProfile="basic"><path fill="#9c34c2" d="M13,50c-0.549,0-1.096-0.225-1.491-0.666c-0.736-0.823-0.666-2.088,0.157-2.824l19-17	c0.743-0.664,1.86-0.68,2.622-0.04l19,16c0.845,0.712,0.953,1.974,0.242,2.818c-0.712,0.846-1.974,0.952-2.818,0.242L32.04,33.648	L14.333,49.49C13.952,49.832,13.476,50,13,50z"/><path fill="#9c34c2" d="M32,34c-0.282,0-0.564-0.06-0.828-0.18l-22-10c-1.005-0.457-1.45-1.643-0.993-2.647	c0.457-1.006,1.643-1.449,2.648-0.993L32,29.803l21.172-9.623c1.005-0.456,2.192-0.013,2.648,0.993	c0.457,1.005,0.012,2.19-0.993,2.647l-22,10C32.564,33.94,32.282,34,32,34z"/><path fill="#9c34c2" d="M32,33c-1.104,0-2-0.896-2-2V7c0-1.104,0.896-2,2-2s2,0.896,2,2v24C34,32.104,33.104,33,32,33z"/><circle cx="32" cy="32" r="14" fill="#37d0ee"/><path fill="#fff" d="M32,18c-7.732,0-14,6.268-14,14c0,1.73,0.329,3.379,0.902,4.909	C21.232,36.483,23,34.453,23,32c0-4.963,4.038-9,9-9c2.452,0,4.483-1.768,4.909-4.098C35.379,18.329,33.73,18,32,18z" opacity=".3"/><path fill="#9c34c2" d="M32,35c-3.314,0-6,2.686-6,6v3.635C27.821,45.501,29.85,46,32,46s4.179-0.499,6-1.365V41	C38,37.686,35.314,35,32,35z"/><circle cx="32" cy="28" r="5" fill="#ffce29"/><circle cx="13" cy="48" r="5" fill="#37d0ee"/><circle cx="51" cy="47" r="5" fill="#37d0ee"/><circle cx="54" cy="22" r="5" fill="#37d0ee"/><circle cx="10" cy="22" r="5" fill="#37d0ee"/><circle cx="32" cy="8" r="5" fill="#37d0ee"/><ellipse cx="32" cy="61" opacity=".3" rx="19" ry="3"/><path d="M45.098,27.091C42.768,27.517,41,29.547,41,32c0,4.963-4.038,9-9,9c-2.452,0-4.483,1.768-4.909,4.098	C28.621,45.671,30.27,46,32,46c7.732,0,14-6.268,14-14C46,30.27,45.671,28.621,45.098,27.091z" opacity=".15"/><path fill="#fff" d="M21.979,30.5c-0.137,0-0.276-0.019-0.415-0.059c-0.796-0.229-1.256-1.06-1.028-1.855	c0.957-3.329,3.061-5.288,4.229-6.16c0.664-0.493,1.604-0.357,2.099,0.307s0.358,1.604-0.306,2.1	c-0.866,0.646-2.426,2.099-3.139,4.582C23.231,30.072,22.631,30.5,21.979,30.5z"/></svg>