<svg xmlns="http://www.w3.org/2000/svg"  viewBox="0 0 64 64" width="48px" height="48px"><path fill="#ffe691" d="M8,23.931v23.138C8,48.131,8.951,49,10.114,49h32.771C44.049,49,45,48.131,45,47.069V23.931	c0-0.29-0.074-0.57-0.201-0.821C44.461,22.454,43.731,22,42.886,22H10.114C8.951,22,8,22.869,8,23.931z"/><path fill="#ffce29" d="M43.5,49h-4c-0.828,0-1.5-0.672-1.5-1.5s0.672-1.5,1.5-1.5H42v-2.5c0-0.828,0.672-1.5,1.5-1.5 s1.5,0.672,1.5,1.5v4C45,48.328,44.328,49,43.5,49z"/><path fill="#ffce29" d="M13.5,49h-4C8.672,49,8,48.328,8,47.5v-4C8,42.672,8.672,42,9.5,42s1.5,0.672,1.5,1.5V46h2.5 c0.828,0,1.5,0.672,1.5,1.5S14.328,49,13.5,49z"/><path fill="#ffce29" d="M9.5,29C8.672,29,8,28.329,8,27.5v-4C8,22.671,8.672,22,9.5,22h4c0.828,0,1.5,0.671,1.5,1.5 S14.328,25,13.5,25H11v2.5C11,28.329,10.328,29,9.5,29z"/><path fill="#ffce29" d="M43.5,29c-0.828,0-1.5-0.671-1.5-1.5V25h-2.5c-0.828,0-1.5-0.671-1.5-1.5s0.672-1.5,1.5-1.5h4 c0.828,0,1.5,0.671,1.5,1.5v4C45,28.329,44.328,29,43.5,29z"/><path fill="#ffce29" d="M33.5,25h-4c-0.828,0-1.5-0.671-1.5-1.5s0.672-1.5,1.5-1.5h4c0.828,0,1.5,0.671,1.5,1.5 S34.328,25,33.5,25z"/><path fill="#ffce29" d="M23.5,25h-4c-0.828,0-1.5-0.671-1.5-1.5s0.672-1.5,1.5-1.5h4c0.828,0,1.5,0.671,1.5,1.5 S24.328,25,23.5,25z"/><path fill="#ffce29" d="M33.5,49h-4c-0.828,0-1.5-0.672-1.5-1.5s0.672-1.5,1.5-1.5h4c0.828,0,1.5,0.672,1.5,1.5 S34.328,49,33.5,49z"/><path fill="#ffce29" d="M23.5,49h-4c-0.828,0-1.5-0.672-1.5-1.5s0.672-1.5,1.5-1.5h4c0.828,0,1.5,0.672,1.5,1.5 S24.328,49,23.5,49z"/><path fill="#ffce29" d="M9.5,39C8.672,39,8,38.328,8,37.5v-4C8,32.671,8.672,32,9.5,32s1.5,0.671,1.5,1.5v4 C11,38.328,10.328,39,9.5,39z"/><g><path fill="#ffce29" d="M43.5,39c-0.828,0-1.5-0.672-1.5-1.5v-4c0-0.829,0.672-1.5,1.5-1.5s1.5,0.671,1.5,1.5v4 C45,38.328,44.328,39,43.5,39z"/></g><path d="M40,40v3c0,0.552-0.448,1-1,1H26c-1.38,0-2.63,0.56-3.54,1.46C21.56,46.37,21,47.62,21,49h19h3.5	c0.145,0,0.283-0.027,0.416-0.065c0.03-0.009,0.058-0.017,0.087-0.027c0.128-0.046,0.249-0.104,0.358-0.181	c0.009-0.006,0.016-0.014,0.024-0.02c0.111-0.082,0.209-0.179,0.294-0.288c0.004-0.005,0.008-0.01,0.012-0.015	C44.882,48.152,45,47.841,45,47.5v-2.97V35h0C42.239,35,40,37.239,40,40z" opacity=".15"/><g><path fill="#37d0ee" d="M51.01,15c0.71,0,1.35-0.25,1.87-0.66L32.82,34.4c-1.76,1.76-4.62,1.76-6.39,0 c-0.57-0.58-0.57-1.52,0-2.1l17.2-17.2l6.26-6.25l0.28,0.28c-1.25,0.35-2.16,1.5-2.16,2.87C48.01,13.66,49.35,15,51.01,15z"/><path fill="#37d0ee" d="M54.13,13.09l-0.77,0.77c0.24-0.3,0.42-0.64,0.52-1.02L54.13,13.09z"/></g><path fill="#9c34c2" d="M51.01,4c-4.42,0-8,3.58-8,8c0,1.1,0.22,2.14,0.62,3.1c0.8,1.91,2.33,3.44,4.24,4.25	c0.96,0.42,2.02,0.65,3.14,0.65c4.42,0,8-3.58,8-8C59.01,7.58,55.43,4,51.01,4z M53.32,13.91c-0.12,0.15-0.26,0.28-0.4,0.4	c-0.02,0.01-0.03,0.02-0.04,0.03C52.36,14.75,51.72,15,51.01,15c-1.66,0-3-1.34-3-3c0-1.37,0.91-2.52,2.16-2.87	C50.43,9.04,50.72,9,51.01,9c1.65,0,3,1.34,3,3c0,0.29-0.04,0.58-0.13,0.84c-0.1,0.38-0.28,0.72-0.52,1.02	C53.35,13.88,53.34,13.89,53.32,13.91z"/><g><path fill="#37d0ee" d="M52.88,30.66C52.36,30.25,51.72,30,51.01,30c-1.66,0-3,1.34-3,3c0,1.37,0.91,2.52,2.16,2.87 l-0.28,0.28l-6.26-6.25l-17.2-17.2c-0.57-0.58-0.57-1.52,0-2.1c1.77-1.76,4.63-1.76,6.39,0L52.88,30.66z"/><path fill="#37d0ee" d="M54.13,31.91l-0.25,0.25c-0.1-0.38-0.28-0.72-0.52-1.02L54.13,31.91z"/></g><path fill="#9c34c2" d="M51.01,25c-1.12,0-2.18,0.23-3.14,0.65c-1.91,0.81-3.44,2.34-4.24,4.25c-0.4,0.96-0.62,2-0.62,3.1	c0,4.42,3.58,8,8,8s8-3.58,8-8C59.01,28.58,55.43,25,51.01,25z M51.01,36c-0.29,0-0.58-0.04-0.84-0.13	c-1.25-0.35-2.16-1.5-2.16-2.87c0-1.66,1.34-3,3-3c0.71,0,1.35,0.25,1.87,0.66l0.48,0.48c0.24,0.3,0.42,0.64,0.52,1.02	c0.09,0.26,0.13,0.55,0.13,0.84C54.01,34.66,52.66,36,51.01,36z"/><ellipse cx="32" cy="61" opacity=".3" rx="22" ry="3"/><path fill="#fff" d="M32,22c0,1.38-0.56,2.63-1.46,3.54C29.63,26.44,28.38,27,27,27H13	c-2.42,0-4.44-1.72-4.9-4.01C8.3,22.41,8.85,22,9.5,22H32z" opacity=".3"/><path fill="#fff" d="M17.5,27h-5c-0.828,0-1.5-0.671-1.5-1.5s0.672-1.5,1.5-1.5h5c0.828,0,1.5,0.671,1.5,1.5	S18.328,27,17.5,27z"/></svg>