<svg xmlns="http://www.w3.org/2000/svg"  viewBox="0 0 64 64" width="48px" height="48px"><ellipse cx="32" cy="61" opacity=".3" rx="20" ry="3"/><path fill="#9c34c2" d="M55,41.5V45c0,1.657-1.343,3-3,3H35c-1.657,0-3-1.343-3-3v-3.5C32,35.149,37.149,30,43.5,30h0 C49.851,30,55,35.149,55,41.5z"/><path d="M55,45v-3.5c0-1.744-0.4-3.391-1.094-4.872C51.672,37.128,50,39.115,50,41.5V43h-2c-2.762,0-5,2.238-5,5h9 C53.657,48,55,46.657,55,45z" opacity=".15"/><circle cx="43.5" cy="30.5" r="3.5" fill="orange"/><circle cx="36.499" cy="22.501" r="1.501" fill="#ffce29"/><circle cx="50.501" cy="22.501" r="1.501" fill="#ffce29"/><ellipse cx="43.499" cy="22.966" fill="#ffce29" rx="7.501" ry="8.034"/><path fill="#9c34c2" d="M38.511,18.142c0,0,2.662,0.714,4.99,0.714s4.99-0.714,4.99-0.714v0.362 c0,1.476,0.974,2.681,2.349,2.68h0.016c0.001-2.357-0.642-4.899-2.519-6.554c-2.785-2.453-6.886-2.453-9.671,0 c-1.879,1.655-2.527,4.764-2.527,6.55c0.009,0,0.016,0,0.025,0c1.374,0,2.347-1.197,2.347-2.673L38.511,18.142L38.511,18.142z"/><g><path fill="#a7b3c7" d="M21.563,32L21.563,32c-7.974,0-14.438,6.464-14.438,14.437V48c0,2.209,1.791,4,4,4H32 c2.209,0,4-1.791,4-4v-1.563C36,38.464,29.536,32,21.563,32z"/></g><g><circle cx="21.5" cy="20.5" r="9.5" fill="#a7b3c7"/></g><g opacity=".3"><path fill="#fff" d="M21.5,11c-5.247,0-9.5,4.253-9.5,9.5c0,1.755,0.484,3.393,1.314,4.804 c2.12-0.58,3.686-2.5,3.686-4.804c0-2.481,2.019-4.5,4.5-4.5c2.304,0,4.224-1.566,4.803-3.686C24.893,11.484,23.255,11,21.5,11z"/></g><g><path fill="#fff" d="M15.5,22c-0.828,0-1.5-0.672-1.5-1.5c0-4.136,3.364-7.5,7.5-7.5c0.828,0,1.5,0.672,1.5,1.5 S22.328,16,21.5,16c-2.481,0-4.5,2.019-4.5,4.5C17,21.328,16.328,22,15.5,22z"/></g></svg>