<svg xmlns="http://www.w3.org/2000/svg"  viewBox="0 0 64 64" width="48px" height="48px" baseProfile="basic"><path fill="#4ccff1" d="M28.667,7.723l-16,7.138C9.823,16.164,8,19.006,8,22.134v18.828c0,3.079,1.767,5.885,4.545,7.215	l16,7.042c2.185,1.046,4.726,1.046,6.911,0l16-7.042C54.232,46.846,56,44.04,56,40.961V22.134c0-3.128-1.823-5.969-4.667-7.273	l-16-7.138C33.217,6.753,30.783,6.753,28.667,7.723z"/><path fill="#21849e" d="M53.177,17.755l-18.633,8.247c0,0-2.88,0.857-2.877,4.46c0,4.097,0,19.897,0,22.828	c0,1.878,0.658,2.5,1.346,2.643c0.838-0.107,1.663-0.341,2.442-0.714l16-7.042C54.232,46.846,56,44.04,56,40.961V22.134	c0-1.727-0.572-3.356-1.549-4.698C53.794,17.448,53.177,17.755,53.177,17.755z"/><path fill="#fff" d="M33.612,7.164c-1.652-0.34-3.385-0.156-4.946,0.559l-16,7.138	C9.823,16.164,8,19.005,8,22.134v18.828c0,1.738,0.578,3.377,1.568,4.724C11.556,45.025,13,43.171,13,40.961V22.134	c0-1.169,0.687-2.24,1.704-2.707l16-7.138C32.744,11.38,33.85,9.271,33.612,7.164z" opacity=".3"/><path d="M56,22.134c0-1.739-0.579-3.378-1.568-4.724C52.444,18.07,51,19.924,51,22.134v18.827	c0,1.127-0.646,2.172-1.65,2.679l-10.482,4.606c-6.148,2.676-6.182,5.44-5.854,7.687c1.484-0.208,2.413-0.653,3.965-1.396	l14.477-6.36C54.232,46.846,56,44.04,56,40.961V22.134z" opacity=".15"/><ellipse cx="13.5" cy="40.5" fill="#21849e" rx="2.5" ry="3.5"/><ellipse cx="19.5" cy="35.5" fill="#21849e" rx="2.5" ry="3.5"/><ellipse cx="25.5" cy="30.5" fill="#21849e" rx="2.5" ry="3.5"/><ellipse cx="41.5" cy="31.5" fill="#4ccff1" rx="2.5" ry="3.5"/><ellipse cx="48.5" cy="37.5" fill="#4ccff1" rx="2.5" ry="3.5"/><ellipse cx="32" cy="17" fill="#21849e" rx="4" ry="2"/><path fill="none" stroke="#fff" stroke-linecap="round" stroke-linejoin="round" stroke-miterlimit="10" stroke-width="3" d="M13,25.625v-3.491c0-1.169,0.687-2.24,1.75-2.728l3.161-1.41"/><ellipse cx="32" cy="61" opacity=".3" rx="19" ry="3"/></svg>