<svg xmlns="http://www.w3.org/2000/svg"  viewBox="0 0 64 64" width="48px" height="48px" baseProfile="basic"><ellipse cx="32" cy="61" opacity=".3" rx="19" ry="3"/><path fill="#ffce29" d="M50,45H37v8h13c2.209,0,4-1.791,4-4v0C54,46.791,52.209,45,50,45z"/><path fill="#ffce29" d="M50,37H37v8h13c2.209,0,4-1.791,4-4v0C54,38.791,52.209,37,50,37z"/><path fill="#ffce29" d="M50,29H37v8h13c2.209,0,4-1.791,4-4v0C54,30.791,52.209,29,50,29z"/><path fill="#ffce29" d="M50,21H37v8h13c2.209,0,4-1.791,4-4v0C54,22.791,52.209,21,50,21z"/><path fill="#ffce29" d="M34,21l2.658-2.658c2.57-2.57,3.125-6.533,1.36-9.71l0,0c-1.011-1.82-3.483-2.166-4.956-0.694	L22.555,18.445C21.559,19.441,21,20.791,21,22.199v23.969C21,49.941,24.059,53,27.831,53H43V21H34z"/><path fill="#37d0ee" d="M17,53h-3c-2.209,0-4-1.791-4-4V23c0-2.209,1.791-4,4-4h3c2.209,0,4,1.791,4,4v26	C21,51.209,19.209,53,17,53z"/><path fill="#fff" d="M18.968,19.537C18.385,19.205,17.719,19,17,19h-3c-2.209,0-4,1.791-4,4v15.997	c2.761,0,5-2.236,5-4.997v-8.678c0-0.748,0.403-1.463,1.083-1.775C17.649,22.828,18.777,21.323,18.968,19.537z" opacity=".3"/><line x1="14.5" x2="14.5" y1="24.5" y2="29.5" fill="none" stroke="#fff" stroke-linecap="round" stroke-linejoin="round" stroke-miterlimit="10" stroke-width="3"/><path d="M43,53h7c2.209,0,4-1.791,4-4c0-1.907-1.337-3.497-3.124-3.897C49.982,45.82,49.337,46.834,49.1,48 H37c-2.761,0-5,2.239-5,5h5H43z" opacity=".15"/></svg>