<svg xmlns="http://www.w3.org/2000/svg"  viewBox="0 0 64 64" width="48px" height="48px"><path fill="#9c34c2" d="M44,46l5.295,9.267C50.032,56.556,52,56.033,52,54.548V44C52,44,44,46.213,44,46z"/><path fill="#9c34c2" d="M52,50H24c-2.761,0-5-2.239-5-5V30c0-2.761,2.239-5,5-5h28c2.761,0,5,2.239,5,5v15	C57,47.761,54.761,50,52,50z"/><path d="M57,45V32c-2.762,0-5,2.238-5,5v8h-6c-2.762,0-5,2.238-5,5h11	C54.761,50,57,47.761,57,45z" opacity=".15"/><ellipse cx="32" cy="61" opacity=".3" rx="20.125" ry="3"/><path fill="#37d0ee" d="M41,31H13c-2.761,0-5-2.239-5-5V11c0-2.761,2.239-5,5-5h28c2.761,0,5,2.239,5,5v15	C46,28.761,43.761,31,41,31z"/><path fill="#37d0ee" d="M21,28l-5.295,9.267C14.968,38.556,13,38.033,13,36.548V26C13,26,21,28.213,21,28z"/><path fill="#008aa9" d="M31.77,25.052c0.198,0.321,0.271,0.615,0.222,0.881c-0.048,0.265-0.172,0.487-0.369,0.666	s-0.436,0.294-0.713,0.342c-0.279,0.05-0.556,0.023-0.834-0.083c-0.279-0.106-0.517-0.306-0.713-0.602l-1.316-2.15	c-0.309-0.481-0.84-0.722-1.594-0.722c-1.285-0.012-2.408-0.296-3.371-0.852c-0.963-0.556-1.714-1.34-2.251-2.354	c-0.537-1.012-0.807-2.192-0.807-3.539c0-1.359,0.27-2.541,0.807-3.548c0.537-1.006,1.288-1.788,2.251-2.343	c0.963-0.556,2.093-0.834,3.391-0.834c1.297,0,2.429,0.277,3.399,0.834c0.97,0.555,1.723,1.337,2.262,2.343	c0.537,1.007,0.805,2.183,0.805,3.53c0,1.42-0.296,2.652-0.89,3.697c-0.593,1.043-1.402,1.83-2.426,2.361	c0.543,0.161,1.012,0.556,1.407,1.187L31.77,25.052z M26.472,20.939c1.086,0,1.936-0.38,2.547-1.14	c0.612-0.758,0.917-1.812,0.917-3.159c0-1.359-0.302-2.411-0.908-3.159c-0.605-0.746-1.457-1.12-2.556-1.12	c-1.075,0-1.918,0.374-2.53,1.12c-0.611,0.748-0.917,1.8-0.917,3.159c0,1.346,0.306,2.4,0.917,3.159	C24.554,20.559,25.397,20.939,26.472,20.939z"/><path fill="#ffa1ac" d="M32.348,45c-0.542,0-0.93-0.181-1.161-0.542c-0.233-0.362-0.225-0.807,0.019-1.336l4.957-10.863	c0.206-0.438,0.452-0.758,0.736-0.958c0.284-0.2,0.613-0.301,0.988-0.301c0.373,0,0.703,0.101,0.986,0.301	c0.284,0.2,0.523,0.52,0.717,0.958l4.995,10.863c0.246,0.542,0.255,0.99,0.03,1.346C44.388,44.822,44.024,45,43.519,45	c-0.438,0-0.777-0.104-1.016-0.31c-0.238-0.206-0.447-0.529-0.629-0.967l-0.813-1.859h-6.371l-0.794,1.859	c-0.194,0.451-0.4,0.777-0.619,0.977S32.748,45,32.348,45z M37.847,34.369l-2.149,5.151h4.376l-2.187-5.151H37.847z"/><path fill="#fff" d="M8,11v12c2.762,0,5-2.238,5-5v-7h6c2.762,0,5-2.238,5-5H13C10.239,6,8,8.239,8,11z" opacity=".3"/><path fill="none" stroke="#fff" stroke-linecap="round" stroke-linejoin="round" stroke-miterlimit="10" stroke-width="3" d="M11.5,16.5V11c0-0.827,0.673-1.5,1.5-1.5h2.5"/></svg>