<svg xmlns="http://www.w3.org/2000/svg"  viewBox="0 0 520 520" width="64px" height="64px"><path fill="#74829c" d="M440,430.634c11.05,0,20,8.96,20,20c0,11.05-8.95,20-20,20s-20-8.95-20-20 C420,439.594,428.95,430.634,440,430.634z"/><path fill="#74829c" d="M75,50.634c13.811,0,25,11.2,25,25c0,13.81-11.189,25-25,25c-13.81,0-25-11.19-25-25 C50,61.834,61.19,50.634,75,50.634z"/><path fill="#ecf0f1" d="M488.33,325.464L380.77,45.414c-4.949-12.89-19.409-19.33-32.3-14.38l-177.369,68.12 c-12.891,4.95-19.32,19.42-14.37,32.31l3.52,9.17H245c13.81,0,25,11.2,25,25v195v5v54.65c6.77,6.72,17.1,9.25,26.59,5.609 l177.37-68.12C486.85,352.824,493.28,338.354,488.33,325.464z"/><path fill="#d7deed" d="M245,140.634h-84.75H55c-13.81,0-25,11.2-25,25v300c0,13.811,11.19,25,25,25h190 c13.81,0,25-11.189,25-25v-45.35v-54.65v-5v-195C270,151.834,258.81,140.634,245,140.634z"/><path fill="#f14742" d="M346.98,186.884c11.109,5.26,15.859,18.53,10.609,29.64l-3.57,7.54l-19.029,40.25l-40.24-19.03 l-7.55-3.57c-8.04-3.81-12.75-11.8-12.75-20.14c0-3.19,0.689-6.43,2.14-9.5c5.26-11.11,18.53-15.86,29.641-10.6l7.55,3.56 l3.56-7.54C322.6,186.384,335.87,181.634,346.98,186.884z"/><polygon fill="#f14742" points="150,265.634 178.57,315.634 150,365.634 121.431,315.634"/><path fill="#74829c" d="M477.07,383.563c1.81,1.811,2.93,4.311,2.93,7.07c0,2.771-1.12,5.271-2.93,7.07 c-1.811,1.81-4.311,2.93-7.07,2.93s-5.26-1.12-7.07-2.93c-1.81-1.8-2.93-4.3-2.93-7.07c0-5.52,4.48-10,10-10 C472.76,380.634,475.26,381.754,477.07,383.563z"/><path fill="#74829c" d="M457.07,73.564c1.81,1.81,2.93,4.31,2.93,7.07c0,2.77-1.12,5.27-2.93,7.07 c-1.811,1.81-4.311,2.93-7.07,2.93s-5.26-1.12-7.07-2.93c-1.81-1.8-2.93-4.3-2.93-7.07c0-5.52,4.48-10,10-10 C452.76,70.634,455.26,71.754,457.07,73.564z"/><path fill="#74829c" d="M337.07,443.563c1.81,1.811,2.93,4.311,2.93,7.07c0,2.771-1.12,5.271-2.93,7.07 c-1.811,1.81-4.311,2.93-7.07,2.93s-5.26-1.12-7.07-2.93c-1.81-1.8-2.93-4.3-2.93-7.07c0-5.52,4.48-10,10-10 C332.76,440.634,335.26,441.754,337.07,443.563z"/><path fill="#74829c" d="M207.07,33.564c1.81,1.81,2.93,4.31,2.93,7.07c0,2.77-1.12,5.27-2.93,7.07 c-1.811,1.81-4.311,2.93-7.07,2.93s-5.26-1.12-7.069-2.93c-1.811-1.8-2.931-4.3-2.931-7.07c0-5.52,4.48-10,10-10 C202.76,30.634,205.26,31.754,207.07,33.564z"/><path fill="#74829c" d="M137.07,83.564c1.81,1.81,2.93,4.31,2.93,7.07c0,2.77-1.12,5.27-2.93,7.07 c-1.811,1.81-4.311,2.93-7.07,2.93s-5.26-1.12-7.069-2.93c-1.811-1.8-2.931-4.3-2.931-7.07c0-5.52,4.48-10,10-10 C132.76,80.634,135.26,81.754,137.07,83.564z"/><path fill="#f14742" d="M92.672,167.953c-4.721-4.72-10.996-7.319-17.672-7.319c-13.785,0-25,11.215-25,25v35 c0,5.523,4.478,10,10,10c5.523,0,10-4.477,10-10v-10h10v10c0,5.523,4.478,10,10,10c5.523,0,10-4.477,10-10v-35 C100,178.959,97.397,172.68,92.672,167.953z M70,190.634v-5c0-2.757,2.243-5,5-5c1.8,0,2.983,0.916,3.528,1.46 c0.55,0.55,1.472,1.741,1.472,3.54v5H70z"/><path fill="#f14742" d="M240,400.634c-5.522,0-10,4.478-10,10v10h-10v-10c0-5.522-4.477-10-10-10c-5.522,0-10,4.478-10,10 v35c0,13.785,11.215,25,25,25c6.676,0,12.952-2.6,17.673-7.32c4.725-4.727,7.327-11.006,7.327-17.68v-35 C250,405.111,245.523,400.634,240,400.634z M228.529,449.173c-0.546,0.546-1.729,1.461-3.529,1.461c-2.757,0-5-2.243-5-5v-5h10v5 C230,447.343,229.199,448.503,228.529,449.173z"/><path fill="#f14742" d="M462.495,313.967l-12.55-32.668c-1.98-5.156-7.77-7.731-12.92-5.75 c-5.156,1.979-7.73,7.765-5.75,12.92l3.585,9.332l-9.34,3.585l-3.586-9.337c-1.98-5.156-7.769-7.73-12.92-5.75 c-5.156,1.979-7.73,7.765-5.75,12.92l7.167,18.662c0.001,0.002,0.001,0.004,0.002,0.006c0.001,0.003,0.003,0.005,0.004,0.008 l5.378,14.005c2.395,6.232,7.073,11.16,13.176,13.874c3.252,1.446,6.699,2.172,10.153,2.172c3.026,0,6.06-0.558,8.968-1.675 c9.599-3.683,16.048-13.068,16.048-23.356C464.16,319.838,463.598,316.822,462.495,313.967z M440.943,327.599 c-1.68,0.646-3.116,0.216-3.824-0.1c-0.707-0.313-1.988-1.092-2.634-2.771l-1.794-4.673l9.341-3.585l1.8,4.686 c0.218,0.564,0.328,1.156,0.328,1.758C444.16,325.011,442.899,326.849,440.943,327.599z"/></svg>