<svg xmlns="http://www.w3.org/2000/svg"  viewBox="0 0 64 64" width="48px" height="48px" baseProfile="basic"><circle cx="21" cy="16" r="8" fill="#ffa602"/><circle cx="21" cy="16" r="5" fill="#ffce29"/><circle cx="38" cy="13" r="7" fill="#ffa602"/><circle cx="38" cy="13" r="4.375" fill="#ffce29"/><circle cx="43" cy="18" r="8" fill="#ffa602"/><circle cx="43" cy="18" r="5" fill="#ffce29"/><circle cx="28" cy="14" r="8" fill="#ffa602"/><circle cx="28" cy="14" r="5" fill="#ffce29"/><ellipse cx="32" cy="61" opacity=".3" rx="19" ry="3"/><path fill="#9c34c2" d="M48.916,49.152l-33.86,0.038c0,0-8.921-14.145-3.056-29.19h40	C57.753,35.045,48.916,49.152,48.916,49.152z"/><path fill="#7c8aa3" d="M48.5,54h-33c-1.381,0-2.5-1.119-2.5-2.5v0c0-1.381,1.119-2.5,2.5-2.5h33c1.381,0,2.5,1.119,2.5,2.5	v0C51,52.881,49.881,54,48.5,54z"/><path fill="#7c8aa3" d="M52.5,21h-41C10.119,21,9,19.881,9,18.5v0c0-1.381,1.119-2.5,2.5-2.5h41c1.381,0,2.5,1.119,2.5,2.5v0	C55,19.881,53.881,21,52.5,21z"/><path fill="#fff" d="M36,16H11.5C10.119,16,9,17.119,9,18.5c0,1.381,1.119,2.5,2.5,2.5h0.139 c-3.206,9.201-1.062,17.882,0.978,23.072c0.048-0.01,0.096-0.015,0.145-0.027c2.68-0.666,4.312-3.378,3.647-6.058 c-1.351-5.44-1.199-10.603,0.452-15.343c0.187-0.536,0.278-1.092,0.278-1.645H31C33.761,21,36,18.762,36,16z" opacity=".3"/><path d="M51,51.5c0-1.381-1.119-2.5-2.5-2.5H49c0,0,6.143-9.818,4.734-21.861 c-2.34,0.327-4.207,2.289-4.305,4.743c-0.325,8.131-4.138,14.417-4.166,14.463C44.755,47.155,44.5,48.077,44.5,49H33 c-2.761,0-5,2.238-5,5h20.5C49.881,54,51,52.881,51,51.5z" opacity=".15"/><line x1="16.5" x2="21.5" y1="19.5" y2="19.5" fill="none" stroke="#fff" stroke-linecap="round" stroke-linejoin="round" stroke-miterlimit="10" stroke-width="3"/></svg>