<svg xmlns="http://www.w3.org/2000/svg"  viewBox="0 0 64 64" width="48px" height="48px" baseProfile="basic"><ellipse cx="32" cy="61" opacity=".3" rx="27" ry="3"/><path fill="#008aa9" d="M22.517,47H6.483C5.664,47,5,46.277,5,45.385v-2.037C5,37.633,9.253,33,14.5,33l0,0 c5.247,0,9.5,4.633,9.5,10.348v2.037C24,46.277,23.336,47,22.517,47z"/><circle cx="14.503" cy="24.504" r="6.497" fill="#ffce29"/><path fill="#008aa9" d="M57.517,47H41.483C40.664,47,40,46.277,40,45.385v-2.037C40,37.633,44.253,33,49.5,33l0,0 c5.247,0,9.5,4.633,9.5,10.348v2.037C59,46.277,58.336,47,57.517,47z"/><circle cx="49.503" cy="24.504" r="6.497" fill="#ffce29"/><path fill="#68e5fd" d="M43.814,50H20.186C18.978,50,18,49.019,18,47.808v-2.765C18,37.288,24.267,31,32,31l0,0	c7.733,0,14,6.288,14,14.043v2.765C46,49.019,45.022,50,43.814,50z"/><path fill="#fff" d="M23,45.043C23,40.057,27.038,36,32,36c2.451,0,4.482-1.767,4.909-4.095	C35.379,31.33,33.73,31,32,31c-7.733,0-14,6.288-14,14.043v2.765c0,0.915,0.56,1.698,1.354,2.026C21.453,49.24,23,47.332,23,45.043z" opacity=".3"/><path d="M46,47.808v-2.765c0-4.103-1.765-7.783-4.562-10.351c-1.882,1.437-2.535,4.05-1.421,6.235	C40.663,42.193,40.994,43.563,41,45h-8c-2.761,0-5,2.238-5,5h15.814C45.022,50,46,49.019,46,47.808z" opacity=".15"/><circle cx="32" cy="20" r="9" fill="#ffce29"/><path fill="none" stroke="#fff" stroke-linecap="round" stroke-linejoin="round" stroke-miterlimit="10" stroke-width="3" d="M24.014,38.205c1.007-1.183,2.269-2.141,3.7-2.786"/></svg>