<svg xmlns="http://www.w3.org/2000/svg"  viewBox="0 0 64 64" width="48px" height="48px"><ellipse cx="32" cy="61" opacity=".3" rx="20.125" ry="3"/><path fill="orange" d="M11,53c-1.023,0-2.048-0.391-2.828-1.172c-1.562-1.562-1.562-4.095,0-5.656l21-21	c1.561-1.562,4.096-1.562,5.656,0c1.562,1.562,1.562,4.095,0,5.656l-21,21C13.048,52.609,12.023,53,11,53z"/><rect width="26.163" height="16.971" x="22.419" y="16.015" fill="#ffce29" transform="rotate(45.001 35.5 24.5)"/><path fill="orange" d="M20,25c-1.023,0-2.048-0.391-2.828-1.172c-1.562-1.562-1.562-4.095,0-5.656l12-12	c1.561-1.562,4.096-1.562,5.656,0c1.562,1.562,1.562,4.095,0,5.656l-12,12C22.048,24.609,21.023,25,20,25z"/><path fill="orange" d="M39,44c-1.023,0-2.048-0.391-2.828-1.172c-1.562-1.562-1.562-4.095,0-5.656l12-12	c1.561-1.562,4.096-1.562,5.656,0c1.562,1.562,1.562,4.095,0,5.656l-12,12C41.048,43.609,40.023,44,39,44z"/><path fill="#9c34c2" d="M55,53H36c-1.657,0-3-1.343-3-3s1.343-3,3-3h19c1.657,0,3,1.343,3,3S56.657,53,55,53z"/><path fill="#fff" d="M32.71,9.71l-12,12c-0.98,0.97-2.26,1.46-3.54,1.46	c-0.18,0-0.36-0.01-0.54-0.03c-0.99-1.54-0.81-3.62,0.54-4.97l12-12c1.35-1.35,3.43-1.53,4.97-0.55C34.3,7.08,33.83,8.59,32.71,9.71	z" opacity=".3"/><path d="M53.83,30.83l-12,12C41.05,43.61,40.02,44,39,44	c-0.74,0-1.49-0.21-2.14-0.62c-0.16-1.46,0.31-2.97,1.43-4.09l12-12c1.12-1.12,2.63-1.59,4.09-1.43	C55.36,27.4,55.18,29.48,53.83,30.83z" opacity=".15"/><path fill="#fff" d="M26.5,15.5c-0.384,0-0.768-0.146-1.061-0.439c-0.586-0.586-0.586-1.535,0-2.121l4-4	c0.586-0.586,1.535-0.586,2.121,0s0.586,1.535,0,2.121l-4,4C27.268,15.354,26.884,15.5,26.5,15.5z"/></svg>