<svg xmlns="http://www.w3.org/2000/svg"  viewBox="0 0 64 64" width="48px" height="48px"><path fill="orange" d="M55,25C55,13.954,44.703,5,32,5S9,13.954,9,25c0,2.906,0.718,5.664,2,8.155v6.036	C11,44.056,14.944,48,19.809,48H20v4c0,2.209,1.791,4,4,4s4-1.791,4-4c0,2.209,1.791,4,4,4s4-1.791,4-4c0,2.209,1.791,4,4,4	s4-1.791,4-4v-4h0.191C49.056,48,53,44.056,53,39.191v-6.036C54.282,30.664,55,27.906,55,25z"/><path fill="#fd3c4f" d="M9,25c0,0.669,0.042,1.329,0.117,1.981c1.13,0.105,2.286-0.289,3.143-1.162l2.792-2.844l2.792,2.844	c1.384,1.41,3.551,1.578,5.122,0.396c1.572-1.182,2.087-3.367,1.22-5.166l-1.75-3.628l3.476-1.87	c1.723-0.928,2.547-3.009,1.946-4.921c-0.6-1.912-2.448-3.095-4.369-2.796l-3.873,0.602l-0.042-0.26C13.214,11.734,9,17.937,9,25z"/><path fill="#ffa1ac" d="M10.943,16.955c0.758,1.509,2.303,2.555,4.107,2.555c2.547,0,4.612-2.065,4.612-4.612	c0-2.139-1.464-3.922-3.439-4.443C13.998,12.28,12.192,14.486,10.943,16.955z"/><ellipse cx="32" cy="61" opacity=".3" rx="19" ry="3"/><path fill="#fd3c4f" d="M44.521,8.227l-0.034,0.209l-3.874-0.602c-1.92-0.299-3.769,0.884-4.369,2.796	c-0.6,1.912,0.223,3.993,1.946,4.921l3.476,1.871l-1.749,3.626c-0.867,1.799-0.352,3.984,1.22,5.166s3.738,1.014,5.122-0.396	l2.792-2.844l2.792,2.844c0.831,0.846,1.944,1.236,3.041,1.163C54.958,26.33,55,25.669,55,25C55,17.971,50.827,11.794,44.521,8.227z"/><path fill="#ffa1ac" d="M53.106,17.049c-1.246-2.497-3.061-4.727-5.302-6.571c-1.938,0.546-3.366,2.308-3.366,4.42	c0,2.547,2.065,4.612,4.612,4.612C50.816,19.509,52.331,18.506,53.106,17.049z"/><path fill="none" stroke="#fff" stroke-linecap="round" stroke-linejoin="round" stroke-miterlimit="10" stroke-width="3" d="M14.738,18.317c1.936-3.533,5.358-6.374,9.586-7.953"/><circle cx="22.5" cy="36.5" r="6.5" fill="#9c34c2"/><path fill="#9c34c2" d="M33,47c-0.355,0-0.699-0.095-1-0.269c-0.479,0.275-1.066,0.354-1.633,0.166 c-1.048-0.35-1.614-1.482-1.265-2.53l1-3C30.375,40.551,31.139,40,32,40s1.625,0.551,1.897,1.368l1,3 c0.35,1.048-0.217,2.18-1.265,2.53C33.423,46.967,33.209,47,33,47z"/><path d="M54.294,20.071C51.87,20.417,50,22.48,50,25c0,2.028-0.486,4.002-1.446,5.869 C48.189,31.576,48,32.36,48,33.155V37c0,2.1-9,5-9,11v4c0,1.582,0.749,2.975,1.895,3.891C42.672,55.483,44,53.9,44,52v-4h0.191 C49.056,48,53,44.056,53,39.191v-6.036c1.282-2.491,2-5.25,2-8.155C55,23.299,54.754,21.648,54.294,20.071z" opacity=".15"/><path fill="#fff" d="M32,10c2.601,0,4.712-1.993,4.953-4.53C35.357,5.165,33.701,5,32,5 C19.297,5,9,13.954,9,25c0,2.906,0.718,5.664,2,8.155v5.001c0.001,0,0.003,0,0.004,0c0.77,0,1.552-0.178,2.283-0.555 c2.455-1.263,3.422-4.277,2.159-6.733C14.486,29.002,14,27.028,14,25C14,16.729,22.075,10,32,10z" opacity=".3"/><circle cx="41.5" cy="36.5" r="6.5" fill="#9c34c2"/><path fill="#fd3c4f" d="M31.148,29.587l-1.879-2.316c-0.359-0.442-0.359-1.095,0-1.537l1.885-2.322	c0.445-0.548,1.248-0.55,1.695-0.003l1.879,2.298c0.361,0.441,0.363,1.094,0.005,1.537l-1.885,2.34	C32.403,30.137,31.595,30.139,31.148,29.587z"/><path fill="#a0effe" d="M27.636,17.515c0.4,0.4,0.955,1.777,1.316,2.759c0.165,0.447-0.231,0.843-0.678,0.678	c-0.982-0.361-2.359-0.916-2.759-1.316c-0.643-0.643-0.689-1.639-0.104-2.225C25.997,16.826,26.993,16.872,27.636,17.515z"/><path fill="#a0effe" d="M36.355,17.515c-0.4,0.4-0.955,1.777-1.316,2.759c-0.165,0.447,0.231,0.843,0.678,0.678	c0.982-0.361,2.359-0.916,2.759-1.316c0.643-0.643,0.689-1.639,0.104-2.225C37.994,16.826,36.998,16.872,36.355,17.515z"/><path fill="#a0effe" d="M34,16.036c0,0.7-0.775,2.388-1.36,3.563c-0.266,0.535-1.013,0.535-1.279,0	C30.775,18.424,30,16.736,30,16.036C30,14.911,30.895,14,32,14C33.105,14,34,14.911,34,16.036z"/></svg>