<svg xmlns="http://www.w3.org/2000/svg"  viewBox="0 0 64 64" width="48px" height="48px"><path fill="#37d0ee" d="M49.213,44H24.787C22.696,44,21,42.304,21,40.213V7.787C21,5.696,22.696,4,24.787,4h24.426	C51.304,4,53,5.696,53,7.787v32.426C53,42.304,51.304,44,49.213,44z"/><path fill="#008aa9" d="M44.213,49H19.787C17.696,49,16,47.304,16,45.213V12.787C16,10.696,17.696,9,19.787,9h24.426	C46.304,9,48,10.696,48,12.787v32.426C48,47.304,46.304,49,44.213,49z"/><path fill="#37d0ee" d="M43,26.18V50c0,2.21-1.79,4-4,4H15c-2.21,0-4-1.79-4-4V18c0-2.21,1.79-4,4-4h15.82 c0.4,0,0.8,0.06,1.18,0.18c0.61,0.19,1.18,0.53,1.64,0.99l8.19,8.18c0.46,0.46,0.8,1.03,0.99,1.65C42.94,25.38,43,25.78,43,26.18z"/><path fill="#68e5fd" d="M42.82,25H36c-2.21,0-4-1.79-4-4v-6.82c0.61,0.19,1.18,0.53,1.64,0.99l8.19,8.18 C42.29,23.81,42.63,24.38,42.82,25z"/><ellipse cx="32" cy="60.993" opacity=".3" rx="20" ry="3"/><path d="M53,30v10.21C53,42.3,51.3,44,49.21,44H48v1.21C48,47.3,46.3,49,44.21,49H43v1c0,2.21-1.79,4-4,4H29	c0-2.76,2.24-5,5-5h4c0-2.76,2.24-5,5-5c0-2.76,2.24-5,5-5v-4C48,32.24,50.24,30,53,30z" opacity=".15"/><path fill="#fff" d="M35,4c0,2.76-2.24,5-5,5h-4c0,2.76-2.24,5-5,5	c0,2.76-2.24,5-5,5v4c0,2.76-2.24,5-5,5V18c0-2.21,1.79-4,4-4h1v-1.21C16,10.7,17.7,9,19.79,9H21V7.79C21,5.7,22.7,4,24.79,4H35z" opacity=".3"/><path fill="#fff" d="M24.5,11c-0.828,0-1.5-0.672-1.5-1.5C23,7.57,24.57,6,26.5,6h4C31.328,6,32,6.672,32,7.5	S31.328,9,30.5,9h-4C26.225,9,26,9.225,26,9.5C26,10.328,25.328,11,24.5,11z"/></svg>