<svg xmlns="http://www.w3.org/2000/svg"  viewBox="0 0 64 64" width="48px" height="48px" baseProfile="basic"><ellipse cx="32" cy="61" opacity=".3" rx="20" ry="3"/><path fill="#37d0ee" d="M48,52H17c-2.209,0-4-1.791-4-4V8c0-2.209,1.791-4,4-4h21.311c1.06,0,2.077,0.421,2.827,1.17	l9.689,9.68C51.578,15.601,52,16.619,52,17.68V48C52,50.209,50.209,52,48,52z"/><path fill="#fff" d="M13,8v18c2.762,0,5-2.238,5-5V9.652c0-0.42,0.264-0.795,0.66-0.934 C20.605,8.033,22,6.18,22,4h-5C14.791,4,13,5.791,13,8z" opacity=".3"/><path d="M52,48V25c-2.762,0-5,2.238-5,5v16c0,0.552-0.448,1-1,1h-9c-2.762,0-5,2.238-5,5h16 C50.209,52,52,50.209,52,48z" opacity=".15"/><path fill="#fff" d="M16.5,18c-0.828,0-1.5-0.671-1.5-1.5v-7C15,8.671,15.672,8,16.5,8S18,8.671,18,9.5v7	C18,17.329,17.328,18,16.5,18z"/><path fill="#0089a9" d="M50.827,14.851l-9.689-9.68C40.806,4.839,40.417,4.584,40,4.389V12c0,2.209,1.791,4,4,4h7.616	C51.42,15.579,51.162,15.185,50.827,14.851z"/><path fill="#bd6300" d="M55.954,54.725l-4.947,2.769c-1.206,0.675-2.675,0.68-3.885,0.012l-5.053-2.786	C40.792,54.017,40,52.675,40,51.218V38c0-1.105,0.895-2,2-2h14c1.105,0,2,0.895,2,2v13.235C58,52.683,57.217,54.018,55.954,54.725z"/><path fill="orange" d="M49,36h-7c-1.105,0-2,0.895-2,2v13.218c0,1.457,0.792,2.799,2.068,3.503l5.053,2.786	C47.707,57.829,48.353,57.992,49,58V36z"/><path fill="#0089a9" d="M33,42H22c-1.105,0-2-0.895-2-2l0,0c0-1.105,0.895-2,2-2h11c1.105,0,2,0.895,2,2l0,0	C35,41.105,34.105,42,33,42z"/><path fill="#0089a9" d="M43,33H22c-1.105,0-2-0.895-2-2l0,0c0-1.105,0.895-2,2-2h21c1.105,0,2,0.895,2,2l0,0	C45,32.105,44.105,33,43,33z"/><path fill="#0089a9" d="M43,24H22c-1.105,0-2-0.895-2-2l0,0c0-1.105,0.895-2,2-2h21c1.105,0,2,0.895,2,2l0,0	C45,23.105,44.105,24,43,24z"/></svg>