<svg xmlns="http://www.w3.org/2000/svg"  viewBox="0 0 64 64" width="48px" height="48px"><path fill="#37d0ee" d="M45,54.993H14c-2.209,0-4-1.791-4-4v-40c0-2.209,1.791-4,4-4l31.001,0.006C47.21,7,49,8.79,49,10.999	v39.994C49,53.202,47.209,54.993,45,54.993z"/><ellipse cx="32" cy="60.993" opacity=".3" rx="22" ry="3"/><path fill="#008aa9" d="M41.5,20h-24c-1.381,0-2.5-1.119-2.5-2.5v0c0-1.381,1.119-2.5,2.5-2.5h24c1.381,0,2.5,1.119,2.5,2.5	v0C44,18.881,42.881,20,41.5,20z"/><path fill="#008aa9" d="M41.5,29h-24c-1.381,0-2.5-1.119-2.5-2.5v0c0-1.381,1.119-2.5,2.5-2.5h24c1.381,0,2.5,1.119,2.5,2.5	v0C44,27.881,42.881,29,41.5,29z"/><path fill="#008aa9" d="M41.5,38h-24c-1.381,0-2.5-1.119-2.5-2.5v0c0-1.381,1.119-2.5,2.5-2.5h24c1.381,0,2.5,1.119,2.5,2.5	v0C44,36.881,42.881,38,41.5,38z"/><path fill="#008aa9" d="M41.5,47h-24c-1.381,0-2.5-1.119-2.5-2.5v0c0-1.381,1.119-2.5,2.5-2.5h24c1.381,0,2.5,1.119,2.5,2.5	v0C44,45.881,42.881,47,41.5,47z"/><path fill="#da7200" d="M53.071,55c1.006,0,2.011-0.383,2.778-1.151c1.535-1.534,1.535-4.021,0-5.555L41.706,34.151	c-1.535-1.535-4.021-1.535-5.556,0c-1.535,1.534-1.535,4.021,0,5.555l14.143,14.143C51.06,54.617,52.065,55,53.071,55z"/><path fill="#a0effe" d="M52.95,33.5c0,9.11-7.39,16.5-16.5,16.5c-6,0-11.26-3.21-14.14-8c-0.19-0.33-0.38-0.66-0.55-1	c-0.94-1.83-1.55-3.85-1.74-6c-0.03-0.33-0.05-0.66-0.06-1c-0.01-0.17-0.01-0.33-0.01-0.5c0-0.85,0.06-1.69,0.19-2.5	c0.39-2.58,1.38-4.96,2.82-7c2.99-4.23,7.92-7,13.49-7C45.56,17,52.95,24.39,52.95,33.5z"/><path fill="#37d0ee" d="M41,27.5c0,0.96-0.39,1.84-1.03,2.47C39.34,30.61,38.46,31,37.5,31H20.14 c0.39-2.58,1.38-4.96,2.82-7H37.5C39.43,24,41,25.57,41,27.5z"/><path fill="#37d0ee" d="M41,38.5c0,0.96-0.39,1.84-1.03,2.47C39.34,41.61,38.46,42,37.5,42H22.31 c-0.19-0.33-0.38-0.66-0.55-1c-0.94-1.83-1.55-3.85-1.74-6H37.5C39.43,35,41,36.57,41,38.5z"/><path d="M52.95,33.5c0,9.11-7.39,16.5-16.5,16.5c-1.72,0-3.37-0.26-4.93-0.76	c0.35-2.4,2.43-4.24,4.93-4.24c6.34,0,11.5-5.16,11.5-11.5c0-2.5,1.84-4.58,4.25-4.94C52.69,30.12,52.95,31.78,52.95,33.5z" opacity=".15"/><path fill="#fff" d="M41.39,17.75C41.03,20.16,38.95,22,36.45,22	c-3.73,0-7.24,1.83-9.41,4.89c-0.89,1.26-1.5,2.66-1.83,4.16c-0.5,2.34-2.58,3.94-4.88,3.94c-0.1,0-0.21,0-0.31-0.02	c-0.03-0.32-0.05-0.64-0.06-0.97c-0.01-0.17-0.01-0.33-0.01-0.5c0-0.85,0.06-1.69,0.19-2.5c0.39-2.58,1.38-4.96,2.82-7	c2.99-4.23,7.92-7,13.49-7C38.17,17,39.83,17.26,41.39,17.75z" opacity=".3"/><path fill="#fff" d="M30.001,24c-0.456,0-0.906-0.207-1.201-0.6c-0.497-0.663-0.362-1.604,0.3-2.101	c2.668-2.001,5.782-2.3,7.4-2.3c0.829,0,1.5,0.672,1.5,1.5S37.329,22,36.5,22c-1.002,0-3.554,0.166-5.6,1.7	C30.63,23.902,30.314,24,30.001,24z"/></svg>